REM DIRINDEX 1\2,1\3,1\4,1\5,1\6
REM DIRNAME folder01,folder02,folder03,folder04,folder05,folder06
TITLE ""
FILE "Disc3Track45.mp3" MP3
  TRACK 01 AUDIO
    TITLE "3:cjc030_05384"
    INDEX 01 00:00:00
  TRACK 02 AUDIO
    TITLE "0:"
    INDEX 01 00:00:72
  TRACK 03 AUDIO
    TITLE "4:cjc030_05385"
    INDEX 01 00:01:05
  TRACK 04 AUDIO
    TITLE "0:"
    INDEX 01 00:03:64
  TRACK 05 AUDIO
    TITLE "5:cjc030_05386"
    INDEX 01 00:03:74
  TRACK 06 AUDIO
    TITLE "0:"
    INDEX 01 00:04:74
  TRACK 07 AUDIO
    TITLE "6:cjc030_05387"
    INDEX 01 00:05:12
  TRACK 08 AUDIO
    TITLE "0:"
    INDEX 01 00:06:59
  TRACK 09 AUDIO
    TITLE "3:cjc030_05388"
    INDEX 01 00:07:31
  TRACK 10 AUDIO
    TITLE "0:"
    INDEX 01 00:08:44
  TRACK 11 AUDIO
    TITLE "4:cjc030_05389"
    INDEX 01 00:08:52
  TRACK 12 AUDIO
    TITLE "0:"
    INDEX 01 00:10:29
  TRACK 13 AUDIO
    TITLE "5:cjc030_05390"
    INDEX 01 00:10:35
  TRACK 14 AUDIO
    TITLE "0:"
    INDEX 01 00:11:50
  TRACK 15 AUDIO
    TITLE "6:cjc030_05391"
    INDEX 01 00:11:64
  TRACK 16 AUDIO
    TITLE "0:"
    INDEX 01 00:15:30
  TRACK 17 AUDIO
    TITLE "3:cjc030_05392"
    INDEX 01 00:16:02
  TRACK 18 AUDIO
    TITLE "0:"
    INDEX 01 00:17:20
  TRACK 19 AUDIO
    TITLE "4:cjc030_05393"
    INDEX 01 00:17:29
  TRACK 20 AUDIO
    TITLE "0:"
    INDEX 01 00:18:48
  TRACK 21 AUDIO
    TITLE "5:cjc030_05394"
    INDEX 01 00:18:56
  TRACK 22 AUDIO
    TITLE "0:"
    INDEX 01 00:20:00
  TRACK 23 AUDIO
    TITLE "3:cjc030_05395"
    INDEX 01 00:20:59
  TRACK 24 AUDIO
    TITLE "0:"
    INDEX 01 00:21:70
  TRACK 25 AUDIO
    TITLE "4:cjc030_05396"
    INDEX 01 00:22:05
  TRACK 26 AUDIO
    TITLE "0:"
    INDEX 01 00:25:35
  TRACK 27 AUDIO
    TITLE "5:cjc030_05397"
    INDEX 01 00:25:41
  TRACK 28 AUDIO
    TITLE "0:"
    INDEX 01 00:26:52
  TRACK 29 AUDIO
    TITLE "3:cjc030_05398"
    INDEX 01 00:27:34
  TRACK 30 AUDIO
    TITLE "0:"
    INDEX 01 00:28:47
  TRACK 31 AUDIO
    TITLE "4:cjc030_05399"
    INDEX 01 00:28:59
  TRACK 32 AUDIO
    TITLE "0:"
    INDEX 01 00:31:22
  TRACK 33 AUDIO
    TITLE "5:cjc030_05400"
    INDEX 01 00:31:31
  TRACK 34 AUDIO
    TITLE "0:"
    INDEX 01 00:32:47
  TRACK 35 AUDIO
    TITLE "3:cjc030_05401"
    INDEX 01 00:33:19
  TRACK 36 AUDIO
    TITLE "0:"
    INDEX 01 00:34:43
  TRACK 37 AUDIO
    TITLE "4:cjc030_05402"
    INDEX 01 00:34:53
  TRACK 38 AUDIO
    TITLE "0:"
    INDEX 01 00:36:05
  TRACK 39 AUDIO
    TITLE "5:cjc030_05403"
    INDEX 01 00:36:13
  TRACK 40 AUDIO
    TITLE "0:"
    INDEX 01 00:37:38
  TRACK 41 AUDIO
    TITLE "6:cjc030_05404"
    INDEX 01 00:37:54
  TRACK 42 AUDIO
    TITLE "0:"
    INDEX 01 00:41:51
  TRACK 43 AUDIO
    TITLE "3:cjc030_05405"
    INDEX 01 00:42:23
  TRACK 44 AUDIO
    TITLE "0:"
    INDEX 01 00:43:66
  TRACK 45 AUDIO
    TITLE "4:cjc030_05406"
    INDEX 01 00:43:74
  TRACK 46 AUDIO
    TITLE "0:"
    INDEX 01 00:45:04
  TRACK 47 AUDIO
    TITLE "5:cjc030_05407"
    INDEX 01 00:45:14
  TRACK 48 AUDIO
    TITLE "0:"
    INDEX 01 00:46:58
  TRACK 49 AUDIO
    TITLE "3:cjc030_05408"
    INDEX 01 00:47:40
  TRACK 50 AUDIO
    TITLE "0:"
    INDEX 01 00:48:46
  TRACK 51 AUDIO
    TITLE "4:cjc030_05409"
    INDEX 01 00:48:53
  TRACK 52 AUDIO
    TITLE "0:"
    INDEX 01 00:51:07
  TRACK 53 AUDIO
    TITLE "5:cjc030_05410"
    INDEX 01 00:51:16
  TRACK 54 AUDIO
    TITLE "0:"
    INDEX 01 00:52:20
  TRACK 55 AUDIO
    TITLE "6:cjc030_05411"
    INDEX 01 00:52:34
  TRACK 56 AUDIO
    TITLE "0:"
    INDEX 01 00:55:38
  TRACK 57 AUDIO
    TITLE "3:cjc030_05412"
    INDEX 01 00:56:12
  TRACK 58 AUDIO
    TITLE "0:"
    INDEX 01 00:57:25
  TRACK 59 AUDIO
    TITLE "4:cjc030_05413"
    INDEX 01 00:57:35
  TRACK 60 AUDIO
    TITLE "0:"
    INDEX 01 00:58:28
  TRACK 61 AUDIO
    TITLE "5:cjc030_05414"
    INDEX 01 00:58:38
  TRACK 62 AUDIO
    TITLE "0:"
    INDEX 01 00:59:51
  TRACK 63 AUDIO
    TITLE "3:cjc030_05415"
    INDEX 01 01:00:23
  TRACK 64 AUDIO
    TITLE "0:"
    INDEX 01 01:01:36
  TRACK 65 AUDIO
    TITLE "4:cjc030_05416"
    INDEX 01 01:01:44
  TRACK 66 AUDIO
    TITLE "0:"
    INDEX 01 01:02:73
  TRACK 67 AUDIO
    TITLE "5:cjc030_05417"
    INDEX 01 01:03:08
  TRACK 68 AUDIO
    TITLE "0:"
    INDEX 01 01:04:19
  TRACK 69 AUDIO
    TITLE "6:cjc030_05418"
    INDEX 01 01:04:33
  TRACK 70 AUDIO
    TITLE "0:"
    INDEX 01 01:07:19
  TRACK 71 AUDIO
    TITLE "3:cjc030_05419"
    INDEX 01 01:07:66
  TRACK 72 AUDIO
    TITLE "0:"
    INDEX 01 01:09:16
  TRACK 73 AUDIO
    TITLE "4:cjc030_05420"
    INDEX 01 01:09:26
  TRACK 74 AUDIO
    TITLE "0:"
    INDEX 01 01:10:35
  TRACK 75 AUDIO
    TITLE "5:cjc030_05421"
    INDEX 01 01:10:43
  TRACK 76 AUDIO
    TITLE "0:"
    INDEX 01 01:11:68
  TRACK 77 AUDIO
    TITLE "3:cjc030_05422"
    INDEX 01 01:12:42
  TRACK 78 AUDIO
    TITLE "0:"
    INDEX 01 01:13:71
  TRACK 79 AUDIO
    TITLE "4:cjc030_05423"
    INDEX 01 01:14:02
  TRACK 80 AUDIO
    TITLE "0:"
    INDEX 01 01:15:01
  TRACK 81 AUDIO
    TITLE "5:cjc030_05424"
    INDEX 01 01:15:07
  TRACK 82 AUDIO
    TITLE "0:"
    INDEX 01 01:16:38
  TRACK 83 AUDIO
    TITLE "3:cjc030_05425"
    INDEX 01 01:17:20
  TRACK 84 AUDIO
    TITLE "0:"
    INDEX 01 01:18:37
  TRACK 85 AUDIO
    TITLE "4:cjc030_05426"
    INDEX 01 01:18:47
  TRACK 86 AUDIO
    TITLE "0:"
    INDEX 01 01:19:46
  TRACK 87 AUDIO
    TITLE "5:cjc030_05427"
    INDEX 01 01:19:52
  TRACK 88 AUDIO
    TITLE "0:"
    INDEX 01 01:20:71
  TRACK 89 AUDIO
    TITLE "6:cjc030_05428"
    INDEX 01 01:21:08
  TRACK 90 AUDIO
    TITLE "0:"
    INDEX 01 01:23:56
  TRACK 91 AUDIO
    TITLE "3:cjc030_05429"
    INDEX 01 01:24:28
  TRACK 92 AUDIO
    TITLE "0:"
    INDEX 01 01:25:35
  TRACK 93 AUDIO
    TITLE "4:cjc030_05430"
    INDEX 01 01:25:43
  TRACK 94 AUDIO
    TITLE "0:"
    INDEX 01 01:28:18
  TRACK 95 AUDIO
    TITLE "5:cjc030_05431"
    INDEX 01 01:28:27
  TRACK 96 AUDIO
    TITLE "0:"
    INDEX 01 01:29:31
  TRACK 97 AUDIO
    TITLE "6:cjc030_05432"
    INDEX 01 01:29:46
  TRACK 98 AUDIO
    TITLE "0:"
    INDEX 01 01:33:29
  TRACK 99 AUDIO
    TITLE "3:cjc030_05433"
    INDEX 01 01:34:03
  TRACK 100 AUDIO
    TITLE "0:"
    INDEX 01 01:35:18
  TRACK 101 AUDIO
    TITLE "4:cjc030_05434"
    INDEX 01 01:35:26
  TRACK 102 AUDIO
    TITLE "0:"
    INDEX 01 01:37:07
  TRACK 103 AUDIO
    TITLE "5:cjc030_05435"
    INDEX 01 01:37:17
  TRACK 104 AUDIO
    TITLE "0:"
    INDEX 01 01:38:28
  TRACK 105 AUDIO
    TITLE "6:cjc030_05436"
    INDEX 01 01:38:42
  TRACK 106 AUDIO
    TITLE "0:"
    INDEX 01 01:42:28
  TRACK 107 AUDIO
    TITLE "3:cjc030_05437"
    INDEX 01 01:43:02
  TRACK 108 AUDIO
    TITLE "0:"
    INDEX 01 01:44:21
  TRACK 109 AUDIO
    TITLE "4:cjc030_05438"
    INDEX 01 01:44:30
  TRACK 110 AUDIO
    TITLE "0:"
    INDEX 01 01:46:02
  TRACK 111 AUDIO
    TITLE "5:cjc030_05439"
    INDEX 01 01:46:08
  TRACK 112 AUDIO
    TITLE "0:"
    INDEX 01 01:47:29
  TRACK 113 AUDIO
    TITLE "3:cjc030_05440"
    INDEX 01 01:48:05
  TRACK 114 AUDIO
    TITLE "0:"
    INDEX 01 01:49:28
  TRACK 115 AUDIO
    TITLE "4:cjc030_05441"
    INDEX 01 01:49:35
  TRACK 116 AUDIO
    TITLE "0:"
    INDEX 01 01:52:49
  TRACK 117 AUDIO
    TITLE "5:cjc030_05442"
    INDEX 01 01:52:57
  TRACK 118 AUDIO
    TITLE "0:"
    INDEX 01 01:54:05
  TRACK 119 AUDIO
    TITLE "6:cjc030_05443"
    INDEX 01 01:54:17
  TRACK 120 AUDIO
    TITLE "0:"
    INDEX 01 01:56:49
  TRACK 121 AUDIO
    TITLE "3:cjc030_05444"
    INDEX 01 01:57:23
  TRACK 122 AUDIO
    TITLE "0:"
    INDEX 01 01:58:29
  TRACK 123 AUDIO
    TITLE "4:cjc030_05445"
    INDEX 01 01:58:38
  TRACK 124 AUDIO
    TITLE "0:"
    INDEX 01 01:59:32
  TRACK 125 AUDIO
    TITLE "5:cjc030_05446"
    INDEX 01 01:59:40
  TRACK 126 AUDIO
    TITLE "0:"
    INDEX 01 02:00:47
  TRACK 127 AUDIO
    TITLE "3:cjc030_05447"
    INDEX 01 02:01:29
  TRACK 128 AUDIO
    TITLE "0:"
    INDEX 01 02:02:52
  TRACK 129 AUDIO
    TITLE "4:cjc030_05448"
    INDEX 01 02:02:62
  TRACK 130 AUDIO
    TITLE "0:"
    INDEX 01 02:04:10
  TRACK 131 AUDIO
    TITLE "5:cjc030_05449"
    INDEX 01 02:04:19
  TRACK 132 AUDIO
    TITLE "0:"
    INDEX 01 02:05:42
  TRACK 133 AUDIO
    TITLE "3:cjc030_05450"
    INDEX 01 02:06:20
  TRACK 134 AUDIO
    TITLE "0:"
    INDEX 01 02:07:27
  TRACK 135 AUDIO
    TITLE "4:cjc030_05451"
    INDEX 01 02:07:37
  TRACK 136 AUDIO
    TITLE "0:"
    INDEX 01 02:08:43
  TRACK 137 AUDIO
    TITLE "5:cjc030_05452"
    INDEX 01 02:08:50
  TRACK 138 AUDIO
    TITLE "0:"
    INDEX 01 02:09:58
